<svg xmlns="http://www.w3.org/2000/svg" width="223.047" height="200" class="icon" viewBox="0 0 1142 1024"><path fill="#1BABB1" d="M580.058 723.26a244.38 244.38 0 0 1-44.583 83.81c-83.338 102.045-230.36 114.452-328.388 27.687-98.029-86.764-109.923-239.851-26.585-341.857a229.809 229.809 0 0 1 141.745-82.55l-94.405-92.514c-46.513 21.937-106.968 47.93-142.217 91.096-127.882 156.632-109.607 391.482 40.802 524.641 150.449 133.12 376.043 114.097 503.925-42.535a376.083 376.083 0 0 0 72.704-143.596l-27.254-24.143h-95.744z"/><path fill="#0C67B1" d="M53.605 844.407c-16.384-106.772 8.428-220.514 76.879-309.484 50.018-64.984 120.28-95.232 190.227-112.718l-92.869-104.409c-62.779 26.546-115.436 55.611-149.307 99.643-96.177 124.967-103.148 287.27-25.718 426.928h.788z"/><path fill="#1BABB1" d="M903.956 249.15C841.532 57.11 642.049-45.606 458.36 19.615c-183.65 65.26-281.993 273.801-219.569 465.8A368.875 368.875 0 0 0 318.545 622.2l6.42-2.284 85.858-82.196a239.537 239.537 0 0 1-56.163-93.459c-40.684-125.125 23.395-261.001 143.084-303.536s249.698 24.418 290.382 149.582a248.983 248.983 0 0 1 12.13 80.62l120.714 31.271a381.085 381.085 0 0 0-17.014-153.048"/><path fill="#0C67B1" d="M799.666 351.982a342.724 342.724 0 0 1-2.442 23.788l99.328 24.222 23.788-7.956a345.363 345.363 0 0 0-16.857-152.89C853.583 94.84 717.903 3.074 571.314.002c95.469 36.43 174.474 112.482 209.999 215.197a345.678 345.678 0 0 1 18.353 136.782"/><path fill="#87C24A" d="m439.534 661.032-19.692-186.88c-.512-4.725-6.144-6.104-8.39-2.047l-28.356 51.24a368.088 368.088 0 0 1-71.956-131.86 396.996 396.996 0 0 1 29.145-302.552c-102.951 94.208-148.086 252.258-102.597 400.501a376.673 376.673 0 0 0 63.055 121.816l-36.43 23.434c-3.782 2.403-2.6 8.704 1.732 9.295l168.448 22.607c2.875.393 5.356-2.324 5.04-5.514"/><path fill="#1BABB1" d="M642.876 471.987A246.705 246.705 0 0 1 806.52 437.21c131.505 17.723 223.192 134.853 204.76 261.513-18.432 126.74-139.973 215.04-271.438 197.317a242.097 242.097 0 0 1-147.456-76.8l-21.07 144.974A376.004 376.004 0 0 0 722 1018.684c201.806 27.214 388.291-108.308 416.53-302.75 28.278-194.441-112.403-374.152-314.17-401.367a380.651 380.651 0 0 0-160.413 12.485z"/><path fill="#0C67B1" d="M756.58 910.573c-82.039-12.288-153.955-52.618-208.502-110.631L527.4 957.952a352.61 352.61 0 0 0 150.449 60.337c157.656 23.631 318.148-25.6 404.32-158.522-78.06 75.224-213.384 67.623-325.59 50.806"/><path fill="#87C24A" d="M791.474 300.546a370.884 370.884 0 0 0-158.483 12.406l-7.168-42.141c-.788-4.726-7.287-5.711-9.531-1.458l-88.3 166.36a5.002 5.002 0 0 0 3.268 7.169l185.501 45.567c4.648 1.143 8.192-4.174 5.2-7.955l-40.567-51.397c50.491-16.069 134.262-21.425 190.11-13.745a363.598 363.598 0 0 1 255.802 162.382C1094.34 435.871 975.636 321.932 820.5 300.546M652.407 624.64a5.199 5.199 0 0 0-7.877-1.142l-138.948 125.44c-3.545 3.15-.906 8.782 3.899 8.388l57.225-4.844A340.597 340.597 0 0 1 495.5 879.656c-71.168 80.502-172.543 114.018-275.455 114.49 153.285 61.716 307.357 16.424 400.816-95.861 35.407-37.494 60.377-79.124 74.437-124.534l44.583 16.778c4.45 1.85 8.783-2.836 6.38-6.893z"/></svg>